:SAMPLES-PER-SECOND 30
:FULLY-SPECIFIED
:DEGREES
662
root  -18.6028 38.4275 -0.79504 5.30654 -78.8689 -9.32382
RightUpLeg  5.54191 -13.7999 -20.5031
RightLeg  0.227661 -10.4577 -0.38765
RightFoot  8.08685 -4.45918 25.9665
RightToes  -1.16417e-010 0 -3.6325e-017
Spine  13.095 -0.108894 0.759427
Spine1  -3.09084 -0.0591673 1.01666
HEad  6.51458 -31.1019 0.883975
LeftShoulder1  1.89344 -3.68823 -19.8621
LeftArm  -3.96633 21.2342 -47.9048
LeftForeArm  5.41619 -12.6638 -10.6044
LeftHand  -1.15324 -2.02383 18.1633
RightShoulder  1.20062 1.16154 19.3566
RightArm  6.22725 -21.765 49.4092
RightForeArm  4.92246 17.7113 8.21824
RightHand  -1.18139 1.97362 -18.6837
LeftUpLeg  -1.22353 15.8338 22.5026
LeftLeg  2.00225 -15.5675 1.82395
LeftFoot  2.40799 3.12192 -25.627
LeftToes  6.91183e-011 3.39355e-011 2.1261e-011
663
root  -18.6107 38.4216 -0.801932 6.09174 -78.6725 -9.92391
RightUpLeg  5.36957 -13.6706 -20.2544
RightLeg  0.268457 -10.8121 -0.43469
RightFoot  8.06294 -4.46394 26.0237
RightToes  -1.16417e-010 0 -3.6325e-017
Spine  13.0139 0.0283066 0.742697
Spine1  -3.06749 0.0808452 1.03327
HEad  5.76184 -31.4934 1.53137
LeftShoulder1  1.88895 -3.67152 -19.8607
LeftArm  -4.03809 21.3797 -47.9876
LeftForeArm  4.8145 -12.7711 -10.5646
LeftHand  -1.16473 -1.86936 18.7181
RightShoulder  1.21459 1.19203 19.4972
RightArm  3.96079 -21.6295 49.4015
RightForeArm  7.30663 16.1799 9.24268
RightHand  -1.17463 1.96751 -18.5944
LeftUpLeg  -1.60502 15.8087 22.5531
LeftLeg  2.11325 -15.656 1.86303
LeftFoot  2.34491 3.12261 -25.7455
LeftToes  6.91183e-011 3.39355e-011 2.1261e-011
664
root  -18.6088 38.4145 -0.832224 7.05603 -78.433 -10.8926
RightUpLeg  5.37838 -13.5573 -19.9536
RightLeg  0.418854 -11.1227 -0.45712
RightFoot  7.93019 -4.42169 25.9578
RightToes  -1.16417e-010 0 -3.6325e-017
Spine  13.1145 0.124187 0.730656
Spine1  -2.96926 0.180323 1.05507
HEad  4.97077 -31.8754 2.16029
LeftShoulder1  1.88977 -3.67218 -19.8703
LeftArm  -4.35234 21.4965 -47.9988
LeftForeArm  4.2345 -12.7889 -10.5442
LeftHand  -1.11141 -1.58943 18.5665
RightShoulder  1.21858 1.19516 19.5693
RightArm  1.60585 -21.253 49.5415
RightForeArm  9.69311 14.5389 10.2449
RightHand  -1.14532 1.84214 -18.4441
LeftUpLeg  -1.77822 15.9481 22.8062
LeftLeg  2.18995 -16.0153 1.83798
LeftFoot  2.29856 3.12398 -25.8342
LeftToes  6.91183e-011 3.39355e-011 2.1261e-011
665
root  -18.6055 38.4065 -0.878978 8.2155 -78.0913 -12.1005
RightUpLeg  5.43508 -13.4727 -19.5914
RightLeg  0.675403 -11.4996 -0.428373
RightFoot  7.72387 -4.34942 25.8163
RightToes  -1.16417e-010 0 -3.6325e-017
Spine  13.2778 0.149312 0.68104
Spine1  -2.87746 0.194497 1.1328
HEad  4.16257 -32.2216 2.68761
LeftShoulder1  1.89036 -3.66937 -19.8901
LeftArm  -4.85755 21.5545 -47.9224
LeftForeArm  4.04483 -12.5996 -10.602
LeftHand  -1.04475 -1.45232 17.8228
RightShoulder  1.22015 1.19901 19.5914
RightArm  -0.457533 -20.6655 49.8206
RightForeArm  12.0818 12.8979 11.1356
RightHand  -1.0814 1.53177 -18.19
LeftUpLeg  -1.96613 16.1535 23.155
LeftLeg  2.29131 -16.5468 1.79449
LeftFoot  2.27579 3.12734 -25.8855
LeftToes  6.91183e-011 3.39355e-011 2.1261e-011
666
root  -18.636 38.3966 -0.921392 9.60513 -77.5917 -13.2972
RightUpLeg  5.29466 -13.3515 -19.133
RightLeg  0.944474 -12.094 -0.389326
RightFoot  7.50488 -4.29479 25.7894
RightToes  -1.16417e-010 0 -3.6325e-017
Spine  13.1824 0.111472 0.540266
Spine1  -2.86061 0.106759 1.38488
HEad  3.46634 -32.4841 3.02781
LeftShoulder1  1.90704 -3.713 -19.9672
LeftArm  -5.12626 21.5744 -47.7418
LeftForeArm  4.10878 -12.2703 -10.758
LeftHand  -1.03909 -1.44377 17.7466
RightShoulder  1.22143 1.21315 19.5588
RightArm  -1.66047 -19.9718 50.2673
RightForeArm  14.1792 11.5657 11.8075
RightHand  -0.999651 1.14454 -17.8051
LeftUpLeg  -2.50676 16.2303 23.4234
LeftLeg  2.42816 -17.0006 1.83453
LeftFoot  2.23448 3.13833 -26.0716
LeftToes  6.91183e-011 3.39355e-011 2.1261e-011
667
root  -18.685 38.3783 -0.968727 11.3208 -76.921 -14.5606
RightUpLeg  4.91001 -13.0876 -18.4589
RightLeg  1.2644 -13.0189 -0.469622
RightFoot  7.24494 -4.24664 25.8533
RightToes  -1.16417e-010 0 -3.6325e-017
Spine  12.8249 0.0644078 0.340124
Spine1  -2.94074 -0.0238601 1.84087
HEad  2.89636 -32.7227 3.18453
LeftShoulder1  1.94131 -3.82306 -20.0438
LeftArm  -5.01313 21.553 -47.5148
LeftForeArm  4.19262 -11.9751 -10.9373
LeftHand  -1.06777 -1.38598 18.3769
RightShoulder  1.22231 1.21467 19.5368
RightArm  -1.15822 -19.2751 50.8249
RightForeArm  15.1174 11.0366 12.1589
RightHand  -0.922452 0.774018 -17.4104
LeftUpLeg  -3.47153 16.1059 23.6239
LeftLeg  2.71087 -17.3054 1.9648
LeftFoot  2.05112 3.1499 -26.5039
LeftToes  6.91183e-011 3.39355e-011 2.1261e-011
668
root  -18.7178 38.3397 -1.03252 13.3925 -76.0912 -16.1839
RightUpLeg  4.45189 -12.7228 -17.5555
RightLeg  1.82521 -14.1742 -0.68023
RightFoot  6.85193 -4.1514 25.819
RightToes  -1.16417e-010 0 -3.6325e-017
Spine  12.4669 0.0331622 0.217544
Spine1  -2.97511 -0.133631 2.36631
HEad  2.12266 -33.0525 3.31715
LeftShoulder1  1.96408 -3.93438 -19.9476
LeftArm  -4.82447 21.3772 -47.3674
LeftForeArm  4.40846 -11.8251 -11.032
LeftHand  -1.06079 -1.34694 18.3593
RightShoulder  1.22615 1.21664 19.6153
RightArm  1.33398 -18.5826 51.4133
RightForeArm  14.4952 11.5668 12.1109
RightHand  -0.858501 0.461739 -17.0581
LeftUpLeg  -4.78015 15.5274 23.9194
LeftLeg  3.58083 -17.3366 2.04799
LeftFoot  1.5374 3.08529 -26.965
LeftToes  6.91183e-011 3.39355e-011 2.1261e-011
669
root  -18.7457 38.262 -1.0732 15.5555 -75.0621 -18.1281
RightUpLeg  4.10045 -12.4686 -16.6631
RightLeg  2.78438 -15.2224 -0.849339
RightFoot  6.22984 -4.00865 25.8121
RightToes  -1.16417e-010 0 -3.6325e-017
Spine  12.2678 -0.0414908 0.386352
Spine1  -2.77061 -0.237056 2.77138
HEad  0.766606 -33.5198 3.59786
LeftShoulder1  1.96244 -4.01444 -19.6228
LeftArm  -4.56351 20.935 -47.3445
LeftForeArm  4.79678 -11.9584 -10.9669
LeftHand  -1.02304 -1.5286 17.275
RightShoulder  1.24216 1.25923 19.727
RightArm  5.07567 -17.872 52.075
RightForeArm  12.8571 12.9494 11.5898
RightHand  -0.808932 0.290645 -16.5558
LeftUpLeg  -6.53159 13.0137 24.5238
LeftLeg  5.79477 -15.848 1.75306
LeftFoot  0.468635 2.83913 -27.0165
LeftToes  6.91183e-011 3.39355e-011 2.1261e-011
670
root  -18.7862 38.1217 -1.02864 17.3791 -73.7769 -20.0434
RightUpLeg  4.00946 -12.41 -16.0142
RightLeg  4.09742 -15.9851 -0.929286
RightFoot  5.38912 -3.87022 26.1522
RightToes  -1.16417e-010 0 -3.6325e-017
Spine  12.2797 -0.202934 1.05398
Spine1  -2.32915 -0.342554 2.94711
HEad  -1.15388 -34.1269 4.0519
LeftShoulder1  1.96754 -4.13444 -19.2547
LeftArm  -3.52156 20.2729 -47.3458
LeftForeArm  4.76608 -12.6887 -10.6537
LeftHand  -0.997744 -1.82796 16.1806
RightShoulder  1.25456 1.32052 19.6455
RightArm  9.2646 -17.243 52.8754
RightForeArm  10.4791 14.8892 10.5429
RightHand  -0.774231 0.299442 -15.833
LeftUpLeg  -8.84984 6.16668 25.96
LeftLeg  9.80891 -10.5242 0.5714
LeftFoot  -1.3093 2.35728 -26.3284
LeftToes  6.91183e-011 3.39355e-011 2.1261e-011
671
root  -18.821 37.9183 -0.87474 18.6147 -72.3438 -21.761
RightUpLeg  4.43095 -12.3928 -15.5964
RightLeg  5.40628 -16.6344 -1.09251
RightFoot  4.60275 -3.76329 26.649
RightToes  -1.16417e-010 0 -3.6325e-017
Spine  12.567 -0.371235 2.20255
Spine1  -1.72185 -0.345051 2.8378
HEad  -3.3248 -34.8676 4.65546
LeftShoulder1  2.00501 -4.33599 -19.0567
LeftArm  -1.03903 19.4931 -47.2709
LeftForeArm  3.59166 -14.2452 -9.95229
LeftHand  -0.980031 -1.94586 15.6535
RightShoulder  1.24624 1.34706 19.305
RightArm  13.8792 -16.8162 53.6008
RightForeArm  6.80067 17.3022 8.91837
RightHand  -0.755294 0.374076 -15.2578
LeftUpLeg  -11.4837 -2.08365 27.9316
LeftLeg  14.9371 -4.00252 -0.870425
LeftFoot  -3.65357 1.72744 -25.0123
LeftToes  6.91183e-011 3.39355e-011 2.1261e-011
672
root  -18.8516 37.6915 -0.604821 19.2209 -71.1542 -23.2866
RightUpLeg  5.49204 -12.3718 -15.4639
RightLeg  6.31565 -17.0583 -1.33751
RightFoot  4.16855 -3.67628 26.7505
RightToes  -1.16417e-010 0 -3.6325e-017
Spine  13.0397 -0.416244 3.49162
Spine1  -0.810931 -0.107383 2.35053
HEad  -5.47637 -35.6227 5.46559
LeftShoulder1  2.05069 -4.52334 -19.0278
LeftArm  2.52532 18.5956 -47.1432
LeftForeArm  1.46088 -16.3313 -8.85571
LeftHand  -0.925264 -1.85082 14.9802
RightShoulder  1.23739 1.37053 18.9741
RightArm  18.3453 -16.4491 53.7574
RightForeArm  2.51334 19.8306 7.01854
RightHand  -0.759145 0.413061 -15.2342
LeftUpLeg  -13.661 -4.46143 28.4636
LeftLeg  20.208 -3.19002 -1.01119
LeftFoot  -6.17248 1.1127 -23.5313
LeftToes  6.91183e-011 3.39355e-011 2.1261e-011
673
root  -18.9201 37.4881 -0.188198 19.3413 -70.6853 -24.5537
RightUpLeg  6.89743 -12.5395 -15.9375
RightLeg  6.6757 -16.5976 -1.36056
RightFoot  4.10957 -3.61379 26.4106
RightToes  -1.16417e-010 0 -3.6325e-017
Spine  13.4019 -0.271153 4.52003
Spine1  0.440525 0.407338 1.40402
HEad  -7.24835 -36.1515 6.39567
LeftShoulder1  2.06543 -4.58403 -19.018
LeftArm  5.9081 17.6503 -47.0448
LeftForeArm  -0.523058 -18.1885 -7.74573
LeftHand  -0.834324 -1.77713 13.6732
RightShoulder  1.25918 1.46552 18.9207
RightArm  21.0032 -15.8333 53.0832
RightForeArm  -0.0248809 21.6717 5.71555
RightHand  -0.787721 0.473782 -15.641
LeftUpLeg  -14.7668 -6.12454 28.346
LeftLeg  24.8766 -2.47237 -0.925736
LeftFoot  -8.54325 0.595795 -22.0856
LeftToes  6.91183e-011 3.39355e-011 2.1261e-011
674
root  -19.0286 37.3048 0.391359 19.2878 -71.1215 -25.4991
RightUpLeg  8.06966 -12.9029 -17.1294
RightLeg  6.68821 -15.0633 -1.22247
RightFoot  4.38463 -3.62265 26.0319
RightToes  -1.16417e-010 0 -3.6325e-017
Spine  13.5623 0.0636694 5.1133
Spine1  1.49937 1.1318 0.0951754
HEad  -8.03448 -36.3034 6.99312
LeftShoulder1  2.04371 -4.5117 -18.9738
LeftArm  8.16561 16.9708 -47.0349
LeftForeArm  -1.61992 -19.1976 -7.13201
LeftHand  -0.758718 -1.8112 12.4042
RightShoulder  1.29973 1.60132 19.0491
RightArm  21.5219 -14.9862 51.8748
RightForeArm  -0.447179 22.3907 5.33275
RightHand  -0.820063 0.585892 -15.9805
LeftUpLeg  -15.0475 -7.22464 27.5511
LeftLeg  28.8915 -1.64085 -0.646996
LeftFoot  -10.8403 0.156617 -21.0182
LeftToes  6.91183e-011 3.39355e-011 2.1261e-011
675
root  -19.1196 37.1072 1.09904 19.0975 -72.2923 -26.0378
RightUpLeg  8.68938 -13.2016 -18.7534
RightLeg  6.6324 -13.2367 -1.46456
RightFoot  5.26723 -3.75658 25.5953
RightToes  -1.16417e-010 0 -3.6325e-017
Spine  13.8781 0.550245 5.14503
Spine1  1.70515 1.92157 -1.25036
HEad  -7.58458 -36.089 6.87751
LeftShoulder1  2.00248 -4.33991 -19.0088
LeftArm  9.06741 16.7661 -47.1528
LeftForeArm  -1.82606 -19.0997 -7.26133
LeftHand  -0.729789 -1.7807 11.9874
RightShoulder  1.31871 1.66781 19.091
RightArm  20.6665 -14.2804 50.5389
RightForeArm  -0.37104 22.3636 5.34149
RightHand  -0.828347 0.643201 -15.9904
LeftUpLeg  -14.9246 -7.65233 26.1332
LeftLeg  32.5547 -0.960307 -0.316762
LeftFoot  -13.2458 -0.262463 -20.3233
LeftToes  6.91183e-011 3.39355e-011 2.1261e-011
